HIERARCHY
ROOT Hips
{
	OFFSET 0.00000 0.00000 0.00000
	CHANNELS 6 Xposition Yposition Zposition Zrotation Yrotation Xrotation 
	JOINT LHipJoint
	{
		OFFSET 0 0 0
		CHANNELS 3 Zrotation Yrotation Xrotation
		JOINT LeftHip
		{
			OFFSET 1.84395 -1.68683 0.74144
			CHANNELS 3 Zrotation Yrotation Xrotation
			JOINT LeftKnee
			{
				OFFSET 2.27037 -6.23779 0.00000
				CHANNELS 3 Zrotation Yrotation Xrotation
				JOINT LeftAnkle
				{
					OFFSET 2.56918 -7.05877 0.00000
					CHANNELS 3 Zrotation Yrotation Xrotation
					JOINT LeftToe
					{
						OFFSET 0.22276 -0.61202 1.71784
						CHANNELS 3 Zrotation Yrotation Xrotation
						End Site
						{
							OFFSET 0.00000 -0.00000 0.91613
						}
					}
				}
			}
		}
	}
	JOINT RHipJoint
	{
		OFFSET 0 0 0
		CHANNELS 3 Zrotation Yrotation Xrotation
		JOINT RightHip
		{
			OFFSET -1.76833 -1.68684 0.74144
			CHANNELS 3 Zrotation Yrotation Xrotation
			JOINT RightKnee
			{
				OFFSET -2.49360 -6.85110 0.00000
				CHANNELS 3 Zrotation Yrotation Xrotation
				JOINT RightAnkle
				{
					OFFSET -2.55538 -7.02085 0.00000
					CHANNELS 3 Zrotation Yrotation Xrotation
					JOINT RightToe
					{
						OFFSET -0.21516 -0.59115 1.68050
						CHANNELS 3 Zrotation Yrotation Xrotation
						End Site
						{
							OFFSET -0.00000 -0.00000 0.89604
						}
					}
				}
			}
		}
	}
	JOINT lowerback
	{
		OFFSET 0 0 0
		CHANNELS 3 Zrotation Yrotation Xrotation
		JOINT Chest
		{
			OFFSET 0.06382 1.72312 -0.19613
			CHANNELS 3 Zrotation Yrotation Xrotation
			JOINT Chest2
			{
				OFFSET -0.00055 1.73507 0.23859
				CHANNELS 3 Zrotation Yrotation Xrotation
				JOINT lowerneck
				{
					OFFSET 0 0 0
					CHANNELS 3 Zrotation Yrotation Xrotation
					JOINT Neck
					{
						OFFSET 0.03638 1.65562 0.09633
						CHANNELS 3 Zrotation Yrotation Xrotation
						JOINT Head
						{
							OFFSET 0.06388 1.62807 -0.32386
							CHANNELS 3 Zrotation Yrotation Xrotation
							End Site
							{
								OFFSET 0.00995 1.67644 -0.12021
							}
						}
					}
				}
				JOINT LeftCollar
				{
					OFFSET 0 0 0
					CHANNELS 3 Zrotation Yrotation Xrotation
					JOINT LeftShoulder
					{
						OFFSET 3.09648 1.42991 0.28122
CHANNELS 3 Zrotation Xrotation Yrotation
						JOINT LeftElbow
						{
OFFSET 0 -5.118780 -0.000000
CHANNELS 3 Zrotation Xrotation Yrotation
							JOINT LeftWrist
							{
OFFSET 0 -3.599710 0.000000
CHANNELS 3 Zrotation Xrotation Yrotation
								JOINT lhand
								{
									OFFSET 0 0 0
CHANNELS 3 Zrotation Xrotation Yrotation
									JOINT LFingers
									{
OFFSET 0 -0.628770 0.000000
CHANNELS 3 Zrotation Xrotation Yrotation
										End Site
										{
OFFSET 0 -0.506930 0.000000
										}
									}
								}
								JOINT LThumb
								{
OFFSET 0 0.000000 0.000000
CHANNELS 3 Zrotation Xrotation Yrotation
									End Site
									{
OFFSET 0 -0.514670 0.514670
									}
								}
							}
						}
					}
				}
				JOINT RightCollar
				{
					OFFSET 0 0 0
					CHANNELS 3 Zrotation Yrotation Xrotation
					JOINT RightShoulder
					{
						OFFSET -3.33565 1.14597 0.05047
CHANNELS 3 Zrotation Xrotation Yrotation
						JOINT RightElbow
						{
OFFSET 0 -5.490200 0.000000
CHANNELS 3 Zrotation Xrotation Yrotation
							JOINT RightWrist
							{
OFFSET 0 -3.206590 -0.000000
CHANNELS 3 Zrotation Xrotation Yrotation
								JOINT rhand
								{
									OFFSET 0 0 0
CHANNELS 3 Zrotation Xrotation Yrotation
									JOINT RFingers
									{
OFFSET 0 -0.691880 0.000000
CHANNELS 3 Zrotation Xrotation Yrotation
										End Site
										{
OFFSET 0 -0.557810 0.000000
										}
									}
								}
								JOINT RThumb
								{
OFFSET 0 0.000000 0.000000
CHANNELS 3 Zrotation Xrotation Yrotation
									End Site
									{
OFFSET 0 -0.566330 0.566330
									}
								}
							}
						}
					}
				}
			}
		}
	}
}
MOTION
Frames: 8
Frame Time: 0.008333333333333333
0.655600 17.416000 9.055000 -9.173000 -3.053900 8.954000 0.000000 0.000000 0.000000 -17.959000 -38.590100 22.268600 0.048600 -1.422800 -3.913100 -4.984200 42.002300 -42.053800 0.638900 5.113800 14.233300 0.000000 0.000000 0.000000 27.269300 23.429800 3.994300 -0.030800 -1.132300 3.112800 0.628200 -17.682000 -18.282100 -0.049300 -1.432300 3.939300 5.383100 1.824000 -0.944200 0.813000 2.711800 -8.538800 -2.309000 0.986900 -8.251100 -10.247200 -13.521100 2.470200 17.487700 -19.063300 2.177200 6.151100 -9.517000 2.942700 0.000000 -0.000000 0.000000 -1.802000 10.456800 6.567900 11.495700 -19.044000 1.934600 17.487100 25.205300 10.760600 0.000000 0.000000 0.000000 -7.125000 0.000000 0.000000 -6.761500 18.754400 -4.258300 0.000000 -0.000000 0.000000 5.322500 12.644600 -5.035100 -13.773900 -22.410500 -2.741300 9.886400 38.381200 29.589600 0.000000 0.000000 0.000000 7.125000 0.000000 -0.000000 42.386300 54.318700 -11.233100
0.654583 17.414938 9.061519 -9.163836 -2.993259 8.955456 0.000000 0.000000 0.000000 -18.097278 -38.742622 22.459652 0.049392 -1.434495 -3.945101 -4.980137 42.087469 -42.282528 0.647117 5.145982 14.325425 0.000000 0.000000 0.000000 27.362833 23.649309 4.305493 -0.026353 -1.048465 2.882281 0.666601 -18.014031 -18.440302 -0.064929 -1.643784 4.522256 5.375360 1.669312 -1.083099 0.971003 2.503679 -8.539056 -2.121838 0.892823 -8.193676 -10.567087 -13.521612 1.752548 17.145870 -19.162570 3.354136 5.993426 -9.501144 3.416844 0.000000 0.000000 0.000000 -2.126611 10.447483 8.111974 11.404814 -18.906125 1.905054 17.153541 26.722295 10.829313 0.000000 0.000000 0.000000 -7.125000 0.000000 0.000000 -6.996736 18.706167 -4.416140 0.000000 0.000000 0.000000 4.957858 12.718791 -4.274531 -13.811772 -22.464979 -2.755770 10.191138 37.962596 29.797667 0.000000 0.000000 0.000000 7.125000 0.000000 0.000000 42.835518 54.419952 -11.504895
0.648249 17.418229 9.070989 -9.050365 -2.945014 9.055717 0.000000 0.000000 0.000000 -18.256427 -39.016838 22.549950 0.050215 -1.446022 -3.976845 -4.961900 42.180636 -42.590377 0.660948 5.199661 14.478978 0.000000 0.000000 0.000000 27.346619 24.176662 4.573110 -0.023877 -0.998435 2.744455 0.721893 -18.526830 -18.765683 -0.077155 -1.791369 4.929536 5.171343 1.501411 -1.372231 1.123213 2.261716 -8.575276 -1.826945 0.796405 -8.093163 -10.810831 -13.352165 1.030836 16.688127 -19.042644 4.806660 5.810327 -9.374785 3.926161 0.000000 0.000000 0.000000 -2.380250 10.622708 8.875973 11.321185 -18.778903 1.878008 17.575174 26.497327 11.271860 0.000000 0.000000 0.000000 -7.125000 0.000000 0.000000 -6.700780 18.217872 -4.299299 0.000000 0.000000 0.000000 4.496480 12.660182 -3.617809 -13.663515 -22.251543 -2.699490 9.973021 37.988874 29.604629 0.000000 0.000000 0.000000 7.125000 0.000000 0.000000 42.475613 54.313725 -11.258569
0.638103 17.431353 9.104795 -8.774973 -2.703539 9.609619 0.000000 0.000000 0.000000 -18.391812 -39.734004 22.270029 0.050513 -1.450768 -3.989993 -5.024530 42.422003 -42.912713 0.665241 5.216224 14.526359 0.000000 0.000000 0.000000 27.020914 24.871751 4.506518 -0.020123 -0.915283 2.515809 0.805808 -19.245423 -19.179355 -0.087791 -1.911282 5.260444 4.745543 1.272844 -2.585265 1.265719 1.873360 -8.669945 -1.392250 0.653009 -7.529183 -11.051901 -13.090832 0.266262 16.247183 -18.779813 6.247881 5.650031 -9.181583 4.424848 0.000000 0.000000 0.000000 -2.671183 11.050448 8.275012 11.593362 -19.192056 1.966558 17.124040 26.337366 9.062900 0.000000 0.000000 0.000000 -7.125000 0.000000 0.000000 -7.030601 20.536484 -4.147929 0.000000 0.000000 0.000000 3.835210 12.405205 -2.728129 -13.223800 -21.614109 -2.535185 9.586705 37.842615 29.653582 0.000000 0.000000 0.000000 7.125000 0.000000 0.000000 42.177750 54.425365 -11.279654
0.634175 17.433404 9.117480 -8.693289 -2.573992 9.736514 0.000000 0.000000 0.000000 -18.445507 -39.926097 22.224690 0.050598 -1.451672 -3.992449 -5.059354 42.495157 -42.944026 0.651784 5.164206 14.377470 0.000000 0.000000 0.000000 26.945327 25.025735 4.548413 -0.018404 -0.876213 2.408367 0.826344 -19.444939 -19.341512 -0.100206 -2.041160 5.619475 4.659580 1.037782 -2.900365 1.398123 1.548734 -8.819450 -1.187951 0.501063 -7.534528 -11.112079 -12.758372 -0.203188 15.765476 -18.399611 7.482317 5.497103 -8.954607 4.779256 0.000000 0.000000 0.000000 -2.973493 11.193877 9.987762 11.478095 -19.017359 1.928831 17.006552 27.599003 9.167409 0.000000 0.000000 0.000000 -7.125000 0.000000 0.000000 -7.113193 20.435073 -4.214112 0.000000 0.000000 0.000000 3.423303 12.546609 -2.038335 -13.123064 -21.467279 -2.498158 9.502519 37.751550 29.647398 0.000000 0.000000 0.000000 7.125000 0.000000 0.000000 42.098136 54.436711 -11.264588
0.632647 17.432340 9.123853 -8.677343 -2.481216 9.706882 0.000000 0.000000 0.000000 -18.478260 -39.915086 22.273385 0.051317 -1.461461 -4.019515 -5.064263 42.473681 -42.870605 0.648107 5.149703 14.336100 0.000000 0.000000 0.000000 26.982934 25.012361 4.665360 -0.017494 -0.854635 2.348852 0.835195 -19.534791 -19.420418 -0.102552 -2.065180 5.685729 4.657495 0.782681 -2.932343 1.625357 1.220571 -8.910731 -0.936224 0.344085 -7.639406 -11.285238 -12.388923 -0.569352 15.306120 -17.913980 8.343419 5.395987 -8.697947 5.004857 0.000000 0.000000 0.000000 -3.419501 11.408666 11.111457 11.428977 -18.942817 1.912840 17.141569 28.020883 9.398645 0.000000 0.000000 0.000000 -7.125000 0.000000 0.000000 -7.013847 20.187963 -4.193598 0.000000 0.000000 0.000000 2.845617 12.724815 -1.300500 -13.090563 -21.419788 -2.486275 9.454923 37.857133 29.452070 0.000000 0.000000 0.000000 7.125000 0.000000 0.000000 41.887607 54.295140 -11.034430
0.627930 17.433781 9.127876 -8.647630 -2.494176 9.612685 0.000000 0.000000 0.000000 -18.614976 -39.881028 22.450651 0.051687 -1.467363 -4.035741 -5.054585 42.469893 -42.902425 0.660857 5.199237 14.477649 0.000000 0.000000 0.000000 27.021888 24.964542 4.796416 -0.017400 -0.851987 2.341574 0.844961 -19.564029 -19.354288 -0.089544 -1.929976 5.312118 4.447478 0.438956 -2.916782 2.081946 0.785602 -8.984002 -0.323277 0.158654 -7.758697 -12.026848 -11.862398 -0.806326 15.163714 -17.208185 9.013139 5.513094 -8.354770 5.202329 0.000000 0.000000 0.000000 -4.318169 11.598786 12.739461 11.412161 -18.917269 1.907441 17.214998 28.518321 9.195039 0.000000 0.000000 0.000000 -7.125000 0.000000 0.000000 -6.963465 20.394577 -4.130470 0.000000 0.000000 0.000000 1.836612 12.935960 -0.097001 -13.049876 -21.360270 -2.471421 9.383295 37.716782 29.428003 0.000000 0.000000 0.000000 7.125000 0.000000 0.000000 41.803885 54.290207 -11.000309
0.623501 17.434568 9.128532 -8.693048 -2.503079 9.563243 0.000000 0.000000 0.000000 -18.531834 -39.775960 22.416482 0.050692 -1.453057 -3.996433 -5.051146 42.416524 -42.786090 0.647660 5.148265 14.331976 0.000000 0.000000 0.000000 27.102440 24.952071 4.828508 -0.017636 -0.857405 2.356528 0.833594 -19.518702 -19.406774 -0.097709 -2.015855 5.549481 4.519007 0.453477 -2.825182 2.086254 0.814315 -9.020299 -0.359849 0.165992 -7.850937 -11.800929 -11.780732 -1.121925 14.885234 -17.098324 9.472366 5.379690 -8.279602 5.335277 0.000000 0.000000 0.000000 -4.290904 11.606911 12.874359 11.392656 -18.887574 1.901060 16.996672 28.565185 9.251513 0.000000 0.000000 0.000000 -7.125000 0.000000 0.000000 -7.119103 20.348639 -4.231656 0.000000 0.000000 0.000000 1.739224 12.998706 -0.101221 -13.059886 -21.374917 -2.475046 9.535879 37.790135 29.555814 0.000000 0.000000 0.000000 7.125000 0.000000 0.000000 42.048334 54.359778 -11.161650
